<svg width="64" height="64" viewBox="0 0 64 64" fill="none" xmlns="http://www.w3.org/2000/svg">
  <defs>
    <linearGradient id="eh-badge" x1="32" y1="0" x2="32" y2="64" gradientUnits="userSpaceOnUse">
      <stop stop-color="#33566b"/>
      <stop offset="1" stop-color="#182d3a"/>
    </linearGradient>
  </defs>
  <rect x="0" y="0" width="64" height="64" rx="14" fill="url(#eh-badge)"/>
  <circle cx="13" cy="13" r="2.3" fill="#17b9a8"/>
  <circle cx="21" cy="13" r="2.3" fill="#17b9a8"/>
  <circle cx="29" cy="13" r="2.3" fill="#17b9a8"/>
  <path d="M32 31 C26 27.8 17.5 27.8 11.5 30.6 L11.5 49 C17.5 46.2 26 46.2 32 49 Z" fill="#ffffff"/>
  <path d="M32 31 C38 27.8 46.5 27.8 52.5 30.6 L52.5 49 C46.5 46.2 38 46.2 32 49 Z" fill="#eaf6f4"/>
  <path d="M32 31 L32 49" stroke="#0e9d8e" stroke-width="1.6" stroke-linecap="round"/>
  <g stroke="#12b3a3" stroke-width="1.3" stroke-linecap="round" opacity="0.9">
    <path d="M16 35 L27.5 33.4"/>
    <path d="M16 39 L27.5 37.4"/>
    <path d="M16 43 L27.5 41.4"/>
    <path d="M36.5 33.4 L48 35"/>
    <path d="M36.5 37.4 L48 39"/>
    <path d="M36.5 41.4 L48 43"/>
  </g>
  <g transform="translate(40 25) rotate(45)">
    <rect x="-3" y="-17" width="6" height="21" rx="3" fill="#17b9a8"/>
    <rect x="-3" y="-17" width="6" height="3.4" rx="1.7" fill="#0e9d8e"/>
    <path d="M-3 4 L3 4 L0 14 Z" fill="#0e9d8e"/>
    <line x1="0" y1="6" x2="0" y2="12" stroke="#ffffff" stroke-width="0.9" stroke-linecap="round"/>
    <circle cx="0" cy="6.4" r="0.9" fill="#ffffff"/>
  </g>
</svg>
